<svg width="200" height="200" viewBox="0 0 200 200" fill="none" xmlns="http://www.w3.org/2000/svg">
<path d="M100 0L186.603 50V150L100 200L13.3975 150V50L100 0Z" fill="#FFEF01"/>
<path d="M99.7638 40.0005C94.3758 40.0154 89.0146 40.7597 83.8263 42.213L86.7138 49.188C97.9288 46.2185 109.81 47.0282 120.518 51.4916C131.227 55.9551 140.166 63.8236 145.951 73.8793C151.737 83.9351 154.047 95.6174 152.525 107.118C151.002 118.62 145.731 129.298 137.527 137.502C129.324 145.705 118.645 150.976 107.144 152.499C95.6432 154.022 83.9609 151.711 73.9051 145.926C63.8494 140.14 55.981 131.201 51.5175 120.492C47.054 109.784 46.2443 97.903 49.2138 86.688L42.2388 83.763C38.835 95.8717 39.3226 108.744 43.6327 120.56C47.9429 132.377 55.8576 142.54 66.2582 149.613C76.6589 156.687 89.0195 160.313 101.593 159.979C114.167 159.645 126.317 155.368 136.328 147.752C146.338 140.137 153.702 129.568 157.379 117.539C161.056 105.511 160.86 92.6306 156.818 80.7196C152.776 68.8087 145.093 58.4692 134.855 51.1623C124.617 43.8555 112.342 39.9509 99.7638 40.0005Z" fill="#6F6F0C" stroke="#6F6F0C" stroke-width="0.00571429"/>
<path d="M60.2013 91.3755C58.3296 99.9276 59.2768 108.856 62.9013 116.825C66.5258 124.794 72.6327 131.376 80.3087 135.585C87.9846 139.795 96.8172 141.407 105.485 140.179C114.153 138.952 122.191 134.951 128.397 128.776C134.602 122.6 138.641 114.582 139.911 105.92C141.18 97.2577 139.611 88.4174 135.438 80.7212C131.266 73.025 124.714 66.8863 116.762 63.2234C108.811 59.5605 99.8874 58.5701 91.3263 60.4005L93.6513 66.2505C100.935 64.8868 108.464 65.8941 115.133 69.1246C121.802 72.3551 127.26 77.6386 130.705 84.1994C134.151 90.7602 135.402 98.2527 134.275 105.577C133.148 112.901 129.703 119.671 124.446 124.893C119.188 130.115 112.394 133.514 105.063 134.591C97.731 135.668 90.2472 134.366 83.7101 130.876C77.1729 127.386 71.9267 121.893 68.7416 115.202C65.5566 108.511 64.6005 100.975 66.0138 93.7005L60.2013 91.3755Z" fill="#6F6F0C" stroke="#6F6F0C" stroke-width="0.00571429"/>
<path d="M99.7638 115.338C96.0048 115.282 92.3979 113.845 89.6313 111.299C86.8646 108.754 85.1319 105.279 84.7638 101.538L78.6513 98.9879C78.6513 99.3254 78.6513 99.6629 78.6513 100C78.6515 104.23 79.9088 108.364 82.2635 111.878C84.6182 115.392 87.964 118.126 91.8761 119.734C95.7881 121.342 100.09 121.752 104.235 120.91C108.38 120.068 112.181 118.014 115.156 115.007C118.131 112 120.146 108.177 120.943 104.024C121.741 99.8697 121.286 95.5726 119.637 91.6778C117.987 87.783 115.217 84.4664 111.679 82.1491C108.141 79.8317 103.993 78.6183 99.7638 78.6629H98.8638L101.376 85.0004C105.124 85.5688 108.527 87.5117 110.921 90.4508C113.315 93.3899 114.53 97.1149 114.329 100.9C114.128 104.686 112.525 108.261 109.833 110.93C107.14 113.599 103.551 115.17 99.7638 115.338Z" fill="#6F6F0C" stroke="#6F6F0C" stroke-width="0.00571429"/>
<path d="M63.0138 82.5255C63.36 82.8787 63.8317 83.0809 64.3263 83.088H78.0138L98.1513 103.225C98.8574 103.937 99.8171 104.338 100.819 104.342C101.821 104.345 102.784 103.95 103.495 103.244C104.206 102.538 104.608 101.578 104.611 100.576C104.615 99.5741 104.22 98.6116 103.514 97.9005L83.0013 77.5005V64.413C82.9942 63.9184 82.7921 63.4467 82.4388 63.1005L61.4763 42.138C61.2142 41.881 60.8825 41.7066 60.5222 41.6364C60.162 41.5662 59.7891 41.6033 59.4497 41.743C59.1103 41.8828 58.8194 42.1191 58.613 42.4226C58.4067 42.7261 58.2939 43.0835 58.2888 43.4505V58.4505H43.5138C43.1468 58.4556 42.7894 58.5684 42.4859 58.7747C42.1824 58.9811 41.9461 59.272 41.8063 59.6114C41.6666 59.9508 41.6295 60.3237 41.6997 60.6839C41.7699 61.0442 41.9443 61.3759 42.2013 61.638L63.0138 82.5255Z" fill="#6F6F0C" stroke="#6F6F0C" stroke-width="0.00571429"/>
</svg>
