<svg xmlns="http://www.w3.org/2000/svg" version="1.1" xmlns:xlink="http://www.w3.org/1999/xlink" xmlns:svgjs="http://svgjs.dev/svgjs" width="1440" height="560" preserveAspectRatio="none" viewBox="0 0 1440 560">
    <g mask="url(&quot;#SvgjsMask1229&quot;)" fill="none">
        <rect width="1440" height="560" x="0" y="0" fill="rgba(253, 241, 1, 1)"></rect>
        <path d="M36.74 -19.64L106.89 20.86L106.89 101.86L36.74 142.36L-33.41 101.86L-33.41 20.86zM106.89 587.86L177.04 628.36L177.04 709.36L106.89 749.86L36.74 709.36L36.74 628.36zM177.04 223.36L247.19 263.86L247.19 344.86L177.04 385.36L106.89 344.86L106.89 263.86zM247.19 344.86L317.34 385.36L317.34 466.36L247.19 506.86L177.04 466.36L177.04 385.36zM247.19 587.86L317.34 628.36L317.34 709.36L247.19 749.86L177.04 709.36L177.04 628.36zM317.34 -19.64L387.49 20.86L387.49 101.86L317.34 142.36L247.19 101.86L247.19 20.86zM317.34 223.36L387.49 263.86L387.49 344.86L317.34 385.36L247.19 344.86L247.19 263.86zM387.49 344.86L457.64 385.36L457.64 466.36L387.49 506.86L317.34 466.36L317.34 385.36zM457.64 466.36L527.79 506.86L527.79 587.86L457.64 628.36L387.49 587.86L387.49 506.86zM597.94 223.36L668.09 263.86L668.09 344.86L597.94 385.36L527.79 344.86L527.79 263.86zM668.09 587.86L738.24 628.36L738.24 709.36L668.09 749.86L597.94 709.36L597.94 628.36zM738.24 466.36L808.39 506.86L808.39 587.86L738.24 628.36L668.09 587.86L668.09 506.86zM808.39 587.86L878.54 628.36L878.54 709.36L808.39 749.86L738.24 709.36L738.24 628.36zM878.54 223.36L948.69 263.86L948.69 344.86L878.54 385.36L808.39 344.86L808.39 263.86zM948.69 344.86L1018.84 385.36L1018.84 466.36L948.69 506.86L878.54 466.36L878.54 385.36zM878.54 466.36L948.69 506.86L948.69 587.86L878.54 628.36L808.39 587.86L808.39 506.86zM1018.84 -19.64L1088.99 20.86L1088.99 101.86L1018.84 142.36L948.69 101.86L948.69 20.86zM1088.99 101.86L1159.14 142.36L1159.14 223.36L1088.99 263.86L1018.84 223.36L1018.84 142.36zM1088.99 344.86L1159.14 385.36L1159.14 466.36L1088.99 506.86L1018.84 466.36L1018.84 385.36zM1159.14 -19.64L1229.29 20.86L1229.29 101.86L1159.14 142.36L1088.99 101.86L1088.99 20.86zM1159.14 466.36L1229.29 506.86L1229.29 587.86L1159.14 628.36L1088.99 587.86L1088.99 506.86zM1299.44 -19.64L1369.59 20.86L1369.59 101.86L1299.44 142.36L1229.29 101.86L1229.29 20.86zM1369.59 344.86L1439.74 385.36L1439.74 466.36L1369.59 506.86L1299.44 466.36L1299.44 385.36zM1299.44 466.36L1369.59 506.86L1369.59 587.86L1299.44 628.36L1229.29 587.86L1229.29 506.86zM1439.74 -19.64L1509.89 20.86L1509.89 101.86L1439.74 142.36L1369.59 101.86L1369.59 20.86zM1509.89 101.86L1580.04 142.36L1580.04 223.36L1509.89 263.86L1439.74 223.36L1439.74 142.36zM1439.74 223.36L1509.89 263.86L1509.89 344.86L1439.74 385.36L1369.59 344.86L1369.59 263.86zM1509.89 344.86L1580.04 385.36L1580.04 466.36L1509.89 506.86L1439.74 466.36L1439.74 385.36zM1439.74 466.36L1509.89 506.86L1509.89 587.86L1439.74 628.36L1369.59 587.86L1369.59 506.86z" stroke="rgba(212, 202, 0, 0.5)" stroke-width="2"></path>
        <path d="M35.47 -39.54L75.31 -16.54L75.31 29.46L35.47 52.46L-4.37 29.46L-4.37 -16.54zM35.47 236.46L75.31 259.46L75.31 305.46L35.47 328.46L-4.37 305.46L-4.37 259.46zM75.31 305.46L115.15 328.46L115.15 374.46L75.31 397.46L35.47 374.46L35.47 328.46zM75.31 443.46L115.15 466.46L115.15 512.46L75.31 535.46L35.47 512.46L35.47 466.46zM115.15 -39.54L154.98 -16.54L154.98 29.46L115.15 52.46L75.31 29.46L75.31 -16.54zM115.15 98.46L154.98 121.46L154.98 167.46L115.15 190.46L75.31 167.46L75.31 121.46zM115.15 374.46L154.98 397.46L154.98 443.46L115.15 466.46L75.31 443.46L75.31 397.46zM194.82 -39.54L234.66 -16.54L234.66 29.46L194.82 52.46L154.98 29.46L154.98 -16.54zM194.82 236.46L234.66 259.46L234.66 305.46L194.82 328.46L154.98 305.46L154.98 259.46zM234.66 443.46L274.5 466.46L274.5 512.46L234.66 535.46L194.82 512.46L194.82 466.46zM314.34 29.46L354.18 52.46L354.18 98.46L314.34 121.46L274.5 98.46L274.5 52.46zM274.5 98.46L314.34 121.46L314.34 167.46L274.5 190.46L234.66 167.46L234.66 121.46zM314.34 305.46L354.18 328.46L354.18 374.46L314.34 397.46L274.5 374.46L274.5 328.46zM274.5 374.46L314.34 397.46L314.34 443.46L274.5 466.46L234.66 443.46L234.66 397.46zM314.34 443.46L354.18 466.46L354.18 512.46L314.34 535.46L274.5 512.46L274.5 466.46zM394.01 29.46L433.85 52.46L433.85 98.46L394.01 121.46L354.18 98.46L354.18 52.46zM354.18 98.46L394.01 121.46L394.01 167.46L354.18 190.46L314.34 167.46L314.34 121.46zM394.01 167.46L433.85 190.46L433.85 236.46L394.01 259.46L354.18 236.46L354.18 190.46zM433.85 236.46L473.69 259.46L473.69 305.46L433.85 328.46L394.01 305.46L394.01 259.46zM473.69 305.46L513.53 328.46L513.53 374.46L473.69 397.46L433.85 374.46L433.85 328.46zM433.85 374.46L473.69 397.46L473.69 443.46L433.85 466.46L394.01 443.46L394.01 397.46zM433.85 512.46L473.69 535.46L473.69 581.46L433.85 604.46L394.01 581.46L394.01 535.46zM513.53 -39.54L553.37 -16.54L553.37 29.46L513.53 52.46L473.69 29.46L473.69 -16.54zM513.53 98.46L553.37 121.46L553.37 167.46L513.53 190.46L473.69 167.46L473.69 121.46zM513.53 236.46L553.37 259.46L553.37 305.46L513.53 328.46L473.69 305.46L473.69 259.46zM553.37 443.46L593.21 466.46L593.21 512.46L553.37 535.46L513.53 512.46L513.53 466.46zM593.21 -39.54L633.04 -16.54L633.04 29.46L593.21 52.46L553.37 29.46L553.37 -16.54zM633.04 29.46L672.88 52.46L672.88 98.46L633.04 121.46L593.21 98.46L593.21 52.46zM633.04 305.46L672.88 328.46L672.88 374.46L633.04 397.46L593.21 374.46L593.21 328.46zM672.88 -39.54L712.72 -16.54L712.72 29.46L672.88 52.46L633.04 29.46L633.04 -16.54zM712.72 29.46L752.56 52.46L752.56 98.46L712.72 121.46L672.88 98.46L672.88 52.46zM672.88 236.46L712.72 259.46L712.72 305.46L672.88 328.46L633.04 305.46L633.04 259.46zM712.72 305.46L752.56 328.46L752.56 374.46L712.72 397.46L672.88 374.46L672.88 328.46zM672.88 374.46L712.72 397.46L712.72 443.46L672.88 466.46L633.04 443.46L633.04 397.46zM752.56 98.46L792.4 121.46L792.4 167.46L752.56 190.46L712.72 167.46L712.72 121.46zM792.4 167.46L832.24 190.46L832.24 236.46L792.4 259.46L752.56 236.46L752.56 190.46zM752.56 512.46L792.4 535.46L792.4 581.46L752.56 604.46L712.72 581.46L712.72 535.46zM832.24 -39.54L872.07 -16.54L872.07 29.46L832.24 52.46L792.4 29.46L792.4 -16.54zM872.07 29.46L911.91 52.46L911.91 98.46L872.07 121.46L832.24 98.46L832.24 52.46zM872.07 167.46L911.91 190.46L911.91 236.46L872.07 259.46L832.24 236.46L832.24 190.46zM832.24 512.46L872.07 535.46L872.07 581.46L832.24 604.46L792.4 581.46L792.4 535.46zM911.91 -39.54L951.75 -16.54L951.75 29.46L911.91 52.46L872.07 29.46L872.07 -16.54zM951.75 29.46L991.59 52.46L991.59 98.46L951.75 121.46L911.91 98.46L911.91 52.46zM951.75 305.46L991.59 328.46L991.59 374.46L951.75 397.46L911.91 374.46L911.91 328.46zM951.75 443.46L991.59 466.46L991.59 512.46L951.75 535.46L911.91 512.46L911.91 466.46zM991.59 512.46L1031.43 535.46L1031.43 581.46L991.59 604.46L951.75 581.46L951.75 535.46zM1071.27 -39.54L1111.1 -16.54L1111.1 29.46L1071.27 52.46L1031.43 29.46L1031.43 -16.54zM1111.1 29.46L1150.94 52.46L1150.94 98.46L1111.1 121.46L1071.27 98.46L1071.27 52.46zM1071.27 236.46L1111.1 259.46L1111.1 305.46L1071.27 328.46L1031.43 305.46L1031.43 259.46zM1111.1 305.46L1150.94 328.46L1150.94 374.46L1111.1 397.46L1071.27 374.46L1071.27 328.46zM1111.1 443.46L1150.94 466.46L1150.94 512.46L1111.1 535.46L1071.27 512.46L1071.27 466.46zM1190.78 29.46L1230.62 52.46L1230.62 98.46L1190.78 121.46L1150.94 98.46L1150.94 52.46zM1150.94 98.46L1190.78 121.46L1190.78 167.46L1150.94 190.46L1111.1 167.46L1111.1 121.46zM1190.78 167.46L1230.62 190.46L1230.62 236.46L1190.78 259.46L1150.94 236.46L1150.94 190.46zM1190.78 305.46L1230.62 328.46L1230.62 374.46L1190.78 397.46L1150.94 374.46L1150.94 328.46zM1150.94 374.46L1190.78 397.46L1190.78 443.46L1150.94 466.46L1111.1 443.46L1111.1 397.46zM1230.62 374.46L1270.46 397.46L1270.46 443.46L1230.62 466.46L1190.78 443.46L1190.78 397.46zM1230.62 512.46L1270.46 535.46L1270.46 581.46L1230.62 604.46L1190.78 581.46L1190.78 535.46zM1310.3 -39.54L1350.13 -16.54L1350.13 29.46L1310.3 52.46L1270.46 29.46L1270.46 -16.54zM1350.13 29.46L1389.97 52.46L1389.97 98.46L1350.13 121.46L1310.3 98.46L1310.3 52.46zM1350.13 167.46L1389.97 190.46L1389.97 236.46L1350.13 259.46L1310.3 236.46L1310.3 190.46zM1350.13 305.46L1389.97 328.46L1389.97 374.46L1350.13 397.46L1310.3 374.46L1310.3 328.46zM1389.97 -39.54L1429.81 -16.54L1429.81 29.46L1389.97 52.46L1350.13 29.46L1350.13 -16.54zM1429.81 167.46L1469.65 190.46L1469.65 236.46L1429.81 259.46L1389.97 236.46L1389.97 190.46z" stroke="rgba(236, 224, 0, 0.65)" stroke-width="2"></path>
    </g>
    <defs>
        <mask id="SvgjsMask1229">
            <rect width="1440" height="560" fill="#ffffff"></rect>
        </mask>
    </defs>
</svg>