<svg id="visual" viewBox="0 0 1449 560" width="1449" height="560" xmlns="http://www.w3.org/2000/svg" xmlns:xlink="http://www.w3.org/1999/xlink" version="1.1"><rect x="0" y="0" width="1449" height="560" fill="#fdf100"></rect><defs><linearGradient id="grad1_0" x1="61.4%" y1="0%" x2="100%" y2="100%"><stop offset="-1.7499999999999964%" stop-color="#c1b819" stop-opacity="1"></stop><stop offset="101.75%" stop-color="#c1b819" stop-opacity="1"></stop></linearGradient></defs><defs><linearGradient id="grad1_1" x1="61.4%" y1="0%" x2="100%" y2="100%"><stop offset="-1.7499999999999964%" stop-color="#c1b819" stop-opacity="1"></stop><stop offset="101.75%" stop-color="#cdc317" stop-opacity="1"></stop></linearGradient></defs><defs><linearGradient id="grad1_2" x1="61.4%" y1="0%" x2="100%" y2="100%"><stop offset="-1.7499999999999964%" stop-color="#d9ce14" stop-opacity="1"></stop><stop offset="101.75%" stop-color="#cdc317" stop-opacity="1"></stop></linearGradient></defs><defs><linearGradient id="grad1_3" x1="61.4%" y1="0%" x2="100%" y2="100%"><stop offset="-1.7499999999999964%" stop-color="#d9ce14" stop-opacity="1"></stop><stop offset="101.75%" stop-color="#e5da0f" stop-opacity="1"></stop></linearGradient></defs><defs><linearGradient id="grad1_4" x1="61.4%" y1="0%" x2="100%" y2="100%"><stop offset="-1.7499999999999964%" stop-color="#f1e509" stop-opacity="1"></stop><stop offset="101.75%" stop-color="#e5da0f" stop-opacity="1"></stop></linearGradient></defs><defs><linearGradient id="grad1_5" x1="61.4%" y1="0%" x2="100%" y2="100%"><stop offset="-1.7499999999999964%" stop-color="#f1e509" stop-opacity="1"></stop><stop offset="101.75%" stop-color="#fdf100" stop-opacity="1"></stop></linearGradient></defs><defs><linearGradient id="grad2_0" x1="0%" y1="0%" x2="38.6%" y2="100%"><stop offset="-1.7499999999999964%" stop-color="#c1b819" stop-opacity="1"></stop><stop offset="101.75%" stop-color="#c1b819" stop-opacity="1"></stop></linearGradient></defs><defs><linearGradient id="grad2_1" x1="0%" y1="0%" x2="38.6%" y2="100%"><stop offset="-1.7499999999999964%" stop-color="#cdc317" stop-opacity="1"></stop><stop offset="101.75%" stop-color="#c1b819" stop-opacity="1"></stop></linearGradient></defs><defs><linearGradient id="grad2_2" x1="0%" y1="0%" x2="38.6%" y2="100%"><stop offset="-1.7499999999999964%" stop-color="#cdc317" stop-opacity="1"></stop><stop offset="101.75%" stop-color="#d9ce14" stop-opacity="1"></stop></linearGradient></defs><defs><linearGradient id="grad2_3" x1="0%" y1="0%" x2="38.6%" y2="100%"><stop offset="-1.7499999999999964%" stop-color="#e5da0f" stop-opacity="1"></stop><stop offset="101.75%" stop-color="#d9ce14" stop-opacity="1"></stop></linearGradient></defs><defs><linearGradient id="grad2_4" x1="0%" y1="0%" x2="38.6%" y2="100%"><stop offset="-1.7499999999999964%" stop-color="#e5da0f" stop-opacity="1"></stop><stop offset="101.75%" stop-color="#f1e509" stop-opacity="1"></stop></linearGradient></defs><defs><linearGradient id="grad2_5" x1="0%" y1="0%" x2="38.6%" y2="100%"><stop offset="-1.7499999999999964%" stop-color="#fdf100" stop-opacity="1"></stop><stop offset="101.75%" stop-color="#f1e509" stop-opacity="1"></stop></linearGradient></defs><g transform="translate(1449, 0)"><path d="M0 560C-99.9 546.5 -199.8 533 -280 485C-360.2 437 -420.8 354.6 -464.2 268C-507.6 181.4 -533.8 90.7 -560 0L0 0Z" fill="#f7eb04"></path><path d="M0 466.7C-83.2 455.4 -166.5 444.1 -233.3 404.1C-300.2 364.2 -350.7 295.5 -386.8 223.3C-423 151.2 -444.8 75.6 -466.7 0L0 0Z" fill="#ebe00c"></path><path d="M0 373.3C-66.6 364.3 -133.2 355.3 -186.7 323.3C-240.2 291.3 -280.5 236.4 -309.5 178.7C-338.4 121 -355.9 60.5 -373.3 0L0 0Z" fill="#dfd412"></path><path d="M0 280C-49.9 273.2 -99.9 266.5 -140 242.5C-180.1 218.5 -210.4 177.3 -232.1 134C-253.8 90.7 -266.9 45.4 -280 0L0 0Z" fill="#d3c915"></path><path d="M0 186.7C-33.3 182.2 -66.6 177.7 -93.3 161.7C-120.1 145.7 -140.3 118.2 -154.7 89.3C-169.2 60.5 -177.9 30.2 -186.7 0L0 0Z" fill="#c7be18"></path><path d="M0 93.3C-16.6 91.1 -33.3 88.8 -46.7 80.8C-60 72.8 -70.1 59.1 -77.4 44.7C-84.6 30.2 -89 15.1 -93.3 0L0 0Z" fill="#c1b819"></path></g><g transform="translate(0, 560)"><path d="M0 -560C99.4 -546.2 198.8 -532.4 280 -485C361.2 -437.5 424 -356.4 467.7 -270C511.3 -183.6 535.6 -91.8 560 0L0 0Z" fill="#f7eb04"></path><path d="M0 -466.7C82.9 -455.2 165.7 -443.7 233.3 -404.1C301 -364.6 353.4 -297 389.7 -225C426.1 -153 446.4 -76.5 466.7 0L0 0Z" fill="#ebe00c"></path><path d="M0 -373.3C66.3 -364.1 132.6 -354.9 186.7 -323.3C240.8 -291.7 282.7 -237.6 311.8 -180C340.9 -122.4 357.1 -61.2 373.3 0L0 0Z" fill="#dfd412"></path><path d="M0 -280C49.7 -273.1 99.4 -266.2 140 -242.5C180.6 -218.8 212 -178.2 233.8 -135C255.6 -91.8 267.8 -45.9 280 0L0 0Z" fill="#d3c915"></path><path d="M0 -186.7C33.1 -182.1 66.3 -177.5 93.3 -161.7C120.4 -145.8 141.3 -118.8 155.9 -90C170.4 -61.2 178.5 -30.6 186.7 0L0 0Z" fill="#c7be18"></path><path d="M0 -93.3C16.6 -91 33.1 -88.7 46.7 -80.8C60.2 -72.9 70.7 -59.4 77.9 -45C85.2 -30.6 89.3 -15.3 93.3 0L0 0Z" fill="#c1b819"></path></g></svg>