<svg width="200" height="200" viewBox="0 0 200 200" fill="none" xmlns="http://www.w3.org/2000/svg">
<path d="M100 0L186.603 50V150L100 200L13.3975 150V50L100 0Z" fill="#FFEF01"/>
<g clip-path="url(#clip0_74_36)">
<path d="M101.92 88C101.4 88.016 100.9 88.232 100.532 88.608L89.98 99.128L83.48 92.648C81.66 90.752 78.72 93.68 80.62 95.496L88.552 103.408C89.34 104.196 90.62 104.196 91.412 103.408L103.392 91.46C104.712 90.18 103.74 88 101.924 88H101.92ZM42 104H54C55.108 104 56 104.892 56 106C56 107.108 55.108 108 54 108H42C40.892 108 40 107.108 40 106C40 104.892 40.892 104 42 104ZM42 88H54C55.108 88 56 88.892 56 90C56 91.108 55.108 92 54 92H42C40.892 92 40 91.108 40 90C40 88.892 40.892 88 42 88ZM42 72H54C55.108 72 56 72.892 56 74C56 75.108 55.108 76 54 76H42C40.892 76 40 75.108 40 74C40 72.892 40.892 72 42 72ZM138 116C132.5 116 128 120.5 128 126C128 131.5 132.5 136 138 136C143.5 136 148 131.5 148 126C148 120.5 143.5 116 138 116ZM138 120C141.336 120 144 122.664 144 126C144 129.336 141.336 132 138 132C134.664 132 132 129.336 132 126C132 122.664 134.664 120 138 120ZM86 116C80.5 116 76 120.5 76 126C76 131.5 80.5 136 86 136C91.5 136 96 131.5 96 126C96 120.5 91.5 116 86 116ZM86 120C89.336 120 92 122.664 92 126C92 129.336 89.336 132 86 132C82.664 132 80 129.336 80 126C80 122.664 82.664 120 86 120ZM66 64C62.712 64 60 66.712 60 70V114C60 117.288 62.712 120 66 120H74C76.704 120.04 76.704 115.96 74 116H66C64.856 116 64 115.144 64 114V70C64 68.856 64.856 68 66 68H118C119.144 68 120 68.856 120 70V116H98C95.36 116 95.408 120.04 98 120H126C128.64 120 128.616 116 126 116H124V80H140.908L156 103.584V114C156 115.144 155.144 116 154 116H150C147.384 116 147.384 120 150 120H154C157.288 120 160 117.288 160 114V103C160 102.62 159.892 102.24 159.688 101.92L143.688 76.92C143.32 76.348 142.688 76 142 76H124V70C124 66.712 121.288 64 118 64H66Z" fill="#6F6F0C" stroke="#6F6F0C" stroke-width="2"/>
</g>
<defs>
<clipPath id="clip0_74_36">
<rect width="120" height="120" fill="white" transform="translate(40 40)"/>
</clipPath>
</defs>
</svg>
