<svg width="200" height="200" viewBox="0 0 200 200" fill="none" xmlns="http://www.w3.org/2000/svg">
<path d="M100 0L186.603 50V150L100 200L13.3975 150V50L100 0Z" fill="#FFEF01"/>
<path d="M157.145 115.883C150.4 113.05 144.329 109.015 139.102 103.895C135.921 100.777 130.445 100.777 127.254 103.895C125.711 105.406 124.074 106.792 122.388 108.111C119.883 107.083 105.717 103.853 104.109 103.355C100.923 102.364 98.3297 99.9386 97.0897 96.8904C106.921 92.6139 112.133 81.5611 112.963 70.4478V68.7836H117.142C118.401 68.7836 119.42 67.7631 119.42 66.5051C119.42 65.2471 118.401 64.2265 117.142 64.2265H114.294L113.978 61.0225C113.232 53.481 108.055 47.2183 100.789 45.0643L96.6358 43.833V42.2785C96.6358 41.0205 95.6168 40 94.3573 40H81.3895C80.133 40 79.114 41.0175 79.111 42.2725L79.108 43.8183L74.8596 45.079C67.6236 47.224 62.4511 53.46 61.6798 60.96L61.3431 64.2265H58.5531C57.2951 64.2265 56.2746 65.2471 56.2746 66.5051C56.2746 67.7631 57.2951 68.7836 58.5531 68.7836H62.8401L62.8431 70.6201C63.6648 81.5318 68.8166 92.4909 78.5355 96.8151C77.3088 99.9286 74.8361 102.356 71.5786 103.361C68.8106 104.216 58.0651 106.568 58.0651 106.568C58.0636 106.568 58.0621 106.568 58.0621 106.568C56.5773 106.898 43.5131 110.081 42.0061 120.637C41.0969 126.985 40.0361 133.011 40.0346 133.023C39.9174 133.684 40.1014 134.367 40.5331 134.883C40.9664 135.399 41.6056 135.696 42.2791 135.696H112.086C114.67 140.864 117.784 145.762 121.439 150.331L126.677 156.876C128.264 158.861 130.635 160 133.177 160C135.721 160 138.09 158.861 139.679 156.876L144.92 150.325C151.786 141.74 156.8 132.026 159.82 121.456C160.468 119.188 159.317 116.794 157.145 115.883ZM117.83 111.329C115.093 113.069 112.23 114.615 109.207 115.883C108.343 116.248 107.7 116.888 107.209 117.62L109.237 109.362C109.45 109.413 117.108 111.114 117.83 111.329ZM99.4942 49.431C104.975 51.0568 108.879 55.7828 109.443 61.473L109.716 64.2263H96.6358V48.584L99.4942 49.431ZM92.0788 44.5568V64.2263H83.6205L83.6635 44.5568H92.0788ZM66.2133 61.4285C66.7948 55.768 70.6976 51.0658 76.1563 49.4458L79.0978 48.5735L79.0638 64.226H65.9256L66.2133 61.4285ZM67.3941 70.4476V68.7833H108.409L108.412 70.2756C107.516 82.1901 100.826 94.2084 87.9003 94.2084C74.9743 94.2084 68.2841 82.1898 67.3941 70.4476ZM87.9 98.7651C89.6118 98.7651 91.2168 98.5709 92.7493 98.2579C93.58 100.462 94.875 102.408 96.526 104L87.961 110.956L79.258 103.926C80.872 102.343 82.1343 100.418 82.9443 98.2401C84.5078 98.5664 86.1483 98.7651 87.9 98.7651ZM66.4728 109.364L72.0148 131.138H57.5771V111.421C58.3901 111.171 64.4361 109.834 66.4728 109.364ZM46.5156 121.283C47.0629 117.456 50.0816 114.915 53.0201 113.317V131.138H44.9789C45.3764 128.75 45.9756 125.059 46.5156 121.283ZM76.717 131.138L70.8993 108.281C71.6468 108.085 74.6151 107.083 75.4103 106.679L86.534 115.661C86.9508 115.996 87.4583 116.165 87.9655 116.165C88.4743 116.165 88.983 115.996 89.4015 115.655L100.392 106.731C101.15 107.108 104.054 108.079 104.811 108.277L99.1992 131.138H76.717ZM103.891 131.138C103.891 131.138 106.46 121.195 106.536 121.458C107.484 124.776 108.651 127.998 109.986 131.138H103.891ZM141.361 147.476L136.12 154.027C134.683 155.824 131.673 155.824 130.234 154.027L124.998 147.482C118.51 139.374 113.772 130.195 110.974 120.084C120.875 116.061 128.57 108.985 130.445 107.149C131.181 106.428 132.151 106.03 133.18 106.03C134.207 106.03 135.177 106.428 135.911 107.149C141.554 112.673 148.103 117.025 155.437 120.206C152.584 130.192 147.848 139.365 141.361 147.476Z" fill="#6F6F0C" stroke="#6F6F0C"/>
<path d="M125.914 128.584C125.024 127.694 123.583 127.694 122.692 128.584C121.802 129.474 121.802 130.916 122.692 131.806L128.826 137.938C129.335 138.451 130.014 138.733 130.737 138.733C131.459 138.733 132.137 138.451 132.641 137.944L145.213 125.371C146.103 124.481 146.103 123.039 145.213 122.149C144.324 121.259 142.881 121.259 141.991 122.149L130.737 133.405L125.914 128.584Z" fill="#6F6F0C" stroke="#6F6F0C" stroke-width="1.5625"/>
</svg>
